<svg width="47" height="36" viewBox="0 0 47 36" fill="none" xmlns="http://www.w3.org/2000/svg">
<path d="M0.0141602 0.87793H29.0977C38.5461 0.87793 46.2056 8.53742 46.2056 17.9859V17.9859C46.2056 27.4343 38.5461 35.0938 29.0977 35.0938H0.0141602V0.87793Z" fill="#161326"/>
<path d="M21.1131 19.0676C20.8336 19.3095 20.4303 19.3445 20.1133 19.1543L15.29 16.2603C14.6633 15.8843 14.7663 14.9464 15.4596 14.7153L30.2179 9.79586C30.8866 9.57296 31.5228 10.2092 31.2999 10.8779L26.3804 25.6362C26.1493 26.3295 25.2114 26.4325 24.8354 25.8058L21.9415 20.9825C21.7513 20.6655 21.7862 20.2622 22.0281 19.9826L26.3583 14.9787C26.4972 14.8182 26.2775 14.5985 26.117 14.7374L21.1131 19.0676Z" fill="white"/>
</svg>
